<?xml version="1.0" encoding="utf-8"?>
<svg viewBox="42.924 52.046 563.029 515.965" xmlns="http://www.w3.org/2000/svg">
  <defs>
    <filter id="filter0_d_21_4106" x="484.333" y="249.3" width="171.62" height="171.62" filterUnits="userSpaceOnUse" color-interpolation-filters="sRGB">
      <feFlood flood-opacity="0" result="BackgroundImageFix"/>
      <feColorMatrix in="SourceAlpha" type="matrix" values="0 0 0 0 0 0 0 0 0 0 0 0 0 0 0 0 0 0 127 0" result="hardAlpha"/>
      <feOffset dy="4"/>
      <feGaussianBlur stdDeviation="25"/>
      <feComposite in2="hardAlpha" operator="out"/>
      <feColorMatrix type="matrix" values="0 0 0 0 0 0 0 0 0 0 0 0 0 0 0 0 0 0 0.5 0"/>
      <feBlend mode="normal" in2="BackgroundImageFix" result="effect1_dropShadow_21_4106"/>
      <feBlend mode="normal" in="SourceGraphic" in2="effect1_dropShadow_21_4106" result="shape"/>
    </filter>
    <clipPath id="clip0_21_4106">
      <rect width="35.8102" height="35.8102" fill="white" transform="translate(552.238 313.205)"/>
    </clipPath>
    <filter id="filter1_d_21_4106" x="0" y="157.984" width="171.62" height="171.62" filterUnits="userSpaceOnUse" color-interpolation-filters="sRGB">
      <feFlood flood-opacity="0" result="BackgroundImageFix"/>
      <feColorMatrix in="SourceAlpha" type="matrix" values="0 0 0 0 0 0 0 0 0 0 0 0 0 0 0 0 0 0 127 0" result="hardAlpha"/>
      <feOffset dy="4"/>
      <feGaussianBlur stdDeviation="25"/>
      <feComposite in2="hardAlpha" operator="out"/>
      <feColorMatrix type="matrix" values="0 0 0 0 0 0 0 0 0 0 0 0 0 0 0 0 0 0 0.5 0"/>
      <feBlend mode="normal" in2="BackgroundImageFix" result="effect1_dropShadow_21_4106"/>
      <feBlend mode="normal" in="SourceGraphic" in2="effect1_dropShadow_21_4106" result="shape"/>
    </filter>
    <filter id="filter2_d_21_4106" x="0" y="387.169" width="171.62" height="171.62" filterUnits="userSpaceOnUse" color-interpolation-filters="sRGB">
      <feFlood flood-opacity="0" result="BackgroundImageFix"/>
      <feColorMatrix in="SourceAlpha" type="matrix" values="0 0 0 0 0 0 0 0 0 0 0 0 0 0 0 0 0 0 127 0" result="hardAlpha"/>
      <feOffset dy="4"/>
      <feGaussianBlur stdDeviation="25"/>
      <feComposite in2="hardAlpha" operator="out"/>
      <feColorMatrix type="matrix" values="0 0 0 0 0 0 0 0 0 0 0 0 0 0 0 0 0 0 0.5 0"/>
      <feBlend mode="normal" in2="BackgroundImageFix" result="effect1_dropShadow_21_4106"/>
      <feBlend mode="normal" in="SourceGraphic" in2="effect1_dropShadow_21_4106" result="shape"/>
    </filter>
    <clipPath id="clip1_21_4106">
      <rect width="35.8102" height="35.8102" fill="white" transform="translate(67.9051 451.074)"/>
    </clipPath>
  </defs>
  <mask id="mask-3" fill="white">
    <path d="M12,160 C12,226.27417 65.72583,280 132,280 C198.27417,280 252,226.27417 252,160 L264,160 L264,-1.42108547e-14 L-3.19744231e-14,-1.42108547e-14 L-3.19744231e-14,160 L12,160 Z" transform="matrix(1, 0, 0, 1, 0, 0)"/>
  </mask>
  <path d="M565.667 309.713C565.667 167.408 450.231 52.0464 307.834 52.0464C165.436 52.0464 50 167.408 50 309.713C50 452.018 165.436 567.379 307.834 567.379C450.231 567.379 565.667 452.018 565.667 309.713Z" fill="#7B4AE2" fill-opacity="0.2"/>
  <g filter="url(#filter0_d_21_4106)">
    <circle cx="570.143" cy="331.11" r="35.8102" fill="#090E16"/>
  </g>
  <g clip-path="url(#clip0_21_4106)">
    <path fill-rule="evenodd" clip-rule="evenodd" d="M585.251 313.205H555.036C553.491 313.205 552.238 314.458 552.238 316.003V346.218C552.238 347.763 553.491 349.015 555.036 349.015H585.251C586.796 349.015 588.049 347.763 588.049 346.218V316.003C588.049 314.458 586.796 313.205 585.251 313.205ZM573.293 345.112V341.248C573.994 341.836 574.755 342.277 575.577 342.57C576.399 342.864 577.229 343.011 578.066 343.011C578.558 343.011 578.987 342.967 579.353 342.878C579.72 342.79 580.026 342.667 580.272 342.51C580.517 342.353 580.701 342.168 580.821 341.955C580.942 341.741 581.003 341.51 581.003 341.26C581.003 340.922 580.906 340.621 580.713 340.355C580.519 340.089 580.256 339.844 579.921 339.618C579.587 339.393 579.19 339.176 578.731 338.967C578.272 338.757 577.776 338.544 577.245 338.327C575.891 337.763 574.882 337.075 574.218 336.262C573.553 335.449 573.221 334.467 573.221 333.316C573.221 332.415 573.402 331.64 573.765 330.992C574.127 330.344 574.621 329.811 575.245 329.392C575.869 328.974 576.592 328.666 577.414 328.469C578.236 328.271 579.106 328.173 580.024 328.173C580.926 328.173 581.726 328.227 582.423 328.336C583.119 328.444 583.762 328.611 584.35 328.837V332.447C584.06 332.246 583.744 332.068 583.401 331.916C583.059 331.763 582.706 331.636 582.344 331.535C581.981 331.434 581.621 331.36 581.262 331.312C580.904 331.264 580.564 331.239 580.241 331.239C579.798 331.239 579.396 331.282 579.033 331.366C578.671 331.451 578.364 331.569 578.115 331.722C577.865 331.875 577.672 332.058 577.535 332.272C577.398 332.485 577.329 332.724 577.329 332.99C577.329 333.28 577.406 333.539 577.559 333.769C577.712 333.998 577.929 334.216 578.211 334.421C578.493 334.626 578.836 334.827 579.238 335.024C579.641 335.222 580.096 335.425 580.604 335.634C581.297 335.924 581.919 336.232 582.471 336.558C583.023 336.884 583.496 337.252 583.891 337.663C584.285 338.073 584.587 338.542 584.797 339.069C585.006 339.596 585.111 340.21 585.111 340.91C585.111 341.876 584.928 342.687 584.561 343.343C584.195 343.999 583.697 344.53 583.069 344.937C582.441 345.343 581.71 345.635 580.876 345.812C580.042 345.989 579.162 346.078 578.236 346.078C577.285 346.078 576.381 345.997 575.523 345.836C574.665 345.675 573.922 345.434 573.293 345.112ZM571.822 331.634H566.854V345.798H562.918V331.634H557.974V328.452H571.822V331.634Z" fill="#7B4AE2" fill-opacity="0.5"/>
  </g>
  <g filter="url(#filter1_d_21_4106)">
    <circle cx="85.8102" cy="239.794" r="35.8102" fill="#090E16"/>
  </g>
  <path d="M99.2074 233.496C98.7899 233.352 98.3572 233.216 97.9117 233.088C97.9849 232.789 98.0521 232.494 98.1119 232.204C99.0927 227.443 98.4514 223.608 96.2617 222.345C94.1619 221.134 90.728 222.396 87.26 225.415C86.9265 225.705 86.592 226.012 86.2577 226.334C86.035 226.121 85.8126 225.915 85.5908 225.718C81.9562 222.491 78.313 221.131 76.1254 222.397C74.0277 223.612 73.4065 227.217 74.2893 231.729C74.3746 232.165 74.4742 232.61 74.5869 233.063C74.0713 233.209 73.5735 233.365 73.0973 233.531C68.836 235.017 66.1146 237.345 66.1146 239.76C66.1146 242.255 69.036 244.757 73.4745 246.274C73.8247 246.393 74.1882 246.507 74.5627 246.614C74.4411 247.103 74.3354 247.583 74.2466 248.051C73.4048 252.484 74.0622 256.005 76.1543 257.211C78.3153 258.458 81.942 257.177 85.4735 254.09C85.7526 253.846 86.0327 253.587 86.3133 253.316C86.6771 253.666 87.0402 253.997 87.4014 254.308C90.8221 257.252 94.2006 258.441 96.2907 257.231C98.4495 255.981 99.1511 252.199 98.2403 247.598C98.1707 247.246 98.0898 246.887 97.9988 246.522C98.2535 246.447 98.5036 246.369 98.7474 246.288C103.362 244.759 106.364 242.288 106.364 239.76C106.364 237.336 103.554 234.992 99.2074 233.496ZM98.2066 244.656C97.9865 244.729 97.7607 244.799 97.5306 244.868C97.0212 243.255 96.3337 241.54 95.4924 239.769C96.2953 238.039 96.9562 236.346 97.4513 234.744C97.863 234.863 98.2626 234.989 98.6477 235.122C102.372 236.404 104.644 238.3 104.644 239.76C104.644 241.316 102.191 243.336 98.2066 244.656ZM96.5535 247.932C96.9563 249.966 97.0138 251.806 96.747 253.244C96.5073 254.536 96.0252 255.398 95.4292 255.743C94.1607 256.477 91.4482 255.522 88.5228 253.005C88.1874 252.716 87.8496 252.408 87.5108 252.082C88.6449 250.842 89.7783 249.4 90.8846 247.798C92.8303 247.626 94.6686 247.344 96.3357 246.958C96.4178 247.289 96.4907 247.614 96.5535 247.932ZM79.8364 255.616C78.5971 256.053 77.6101 256.066 77.0135 255.722C75.7439 254.99 75.2161 252.163 75.936 248.371C76.0185 247.937 76.1166 247.491 76.2298 247.035C77.8785 247.4 79.7034 247.662 81.6538 247.82C82.7675 249.387 83.9337 250.828 85.1089 252.089C84.8521 252.337 84.5963 252.573 84.342 252.795C82.7804 254.16 81.2155 255.129 79.8364 255.616ZM74.0305 244.647C72.068 243.976 70.4472 243.104 69.3362 242.153C68.338 241.298 67.8339 240.449 67.8339 239.76C67.8339 238.295 70.019 236.425 73.6632 235.155C74.1054 235.001 74.5683 234.855 75.0487 234.719C75.5523 236.357 76.213 238.07 77.0103 239.802C76.2027 241.56 75.5326 243.3 75.024 244.958C74.6816 244.859 74.3498 244.756 74.0305 244.647ZM75.9767 231.399C75.2203 227.533 75.7227 224.617 76.9868 223.886C78.3333 223.106 81.3109 224.217 84.4491 227.004C84.6497 227.182 84.8511 227.369 85.0531 227.561C83.8836 228.817 82.7281 230.247 81.6243 231.804C79.7314 231.98 77.9194 232.262 76.2534 232.639C76.1487 232.218 76.0559 231.804 75.9767 231.399ZM93.3383 235.686C92.9401 234.998 92.5312 234.327 92.1144 233.673C93.3986 233.836 94.629 234.051 95.7844 234.315C95.4375 235.427 95.0052 236.589 94.4962 237.781C94.1311 237.087 93.745 236.389 93.3383 235.686ZM86.2583 228.79C87.0514 229.649 87.8456 230.609 88.6268 231.65C87.8396 231.612 87.0427 231.593 86.2391 231.593C85.4432 231.593 84.6521 231.612 83.8697 231.648C84.6517 230.617 85.4528 229.659 86.2583 228.79ZM79.1329 235.698C78.7351 236.388 78.3561 237.083 77.9968 237.779C77.496 236.592 77.0677 235.424 76.7178 234.297C77.8662 234.04 79.0907 233.83 80.3668 233.67C79.9441 234.33 79.5318 235.006 79.1329 235.698V235.698ZM80.4035 245.973C79.0852 245.826 77.8422 245.627 76.6941 245.377C77.0496 244.229 77.4874 243.036 77.9987 241.823C78.359 242.519 78.7395 243.215 79.1397 243.906H79.1398C79.5475 244.61 79.9699 245.3 80.4035 245.973ZM86.3059 250.852C85.491 249.972 84.6781 249 83.8842 247.953C84.6549 247.984 85.4406 247.999 86.2391 247.999C87.0595 247.999 87.8705 247.981 88.6687 247.945C87.885 249.01 87.0936 249.984 86.3059 250.852ZM94.5126 241.761C95.0506 242.988 95.5041 244.174 95.8642 245.302C94.6972 245.568 93.4372 245.783 92.1097 245.942C92.5275 245.28 92.9399 244.597 93.3452 243.894C93.7552 243.183 94.1445 242.471 94.5126 241.761ZM91.8558 243.035C91.2267 244.126 90.5807 245.167 89.925 246.15C88.7306 246.236 87.4967 246.28 86.2391 246.28C84.9866 246.28 83.7682 246.241 82.595 246.165C81.9128 245.169 81.2529 244.124 80.6277 243.044H80.6278C80.0043 241.968 79.4305 240.881 78.9105 239.802C79.4303 238.719 80.0027 237.632 80.6226 236.557L80.6225 236.557C81.244 235.479 81.8982 234.44 82.5741 233.45C83.7711 233.36 84.9986 233.312 86.239 233.312H86.2391C87.4852 233.312 88.7142 233.36 89.9109 233.451C90.5764 234.434 91.2262 235.47 91.8502 236.548C92.4813 237.638 93.061 238.718 93.5853 239.777C93.0626 240.855 92.4841 241.945 91.8558 243.035ZM95.4028 223.834C96.7506 224.612 97.2748 227.746 96.4279 231.857C96.3739 232.119 96.3131 232.386 96.247 232.657C94.5772 232.272 92.7639 231.985 90.8654 231.807C89.7595 230.232 88.6134 228.8 87.4631 227.561C87.7723 227.263 88.0812 226.979 88.3888 226.712C91.3602 224.126 94.1374 223.105 95.4028 223.834ZM86.2391 236.166C88.2241 236.166 89.8332 237.775 89.8332 239.76C89.8332 241.745 88.2241 243.354 86.2391 243.354C84.2542 243.354 82.645 241.745 82.645 239.76C82.645 237.775 84.2542 236.166 86.2391 236.166Z" fill="#7B4AE2" fill-opacity="0.5"/>
  <g filter="url(#filter2_d_21_4106)">
    <circle cx="85.8102" cy="468.98" r="35.8102" fill="#090E16"/>
  </g>
  <g clip-path="url(#clip1_21_4106)">
    <path fill-rule="evenodd" clip-rule="evenodd" d="M79.8885 451.074C76.5939 451.074 73.9201 453.748 73.9201 457.043C73.9201 460.337 76.5939 463.011 79.8885 463.011C76.5939 463.011 73.9201 465.685 73.9201 468.98C73.9201 472.274 76.5939 474.948 79.8885 474.948C76.5939 474.948 73.9201 477.622 73.9201 480.916C73.9201 484.211 76.5939 486.885 79.8885 486.885C83.183 486.885 85.8568 484.211 85.8568 480.916L85.8568 468.98C85.8568 472.274 88.5307 474.948 91.8252 474.948C95.1198 474.948 97.7936 472.274 97.7936 468.98C97.7936 465.685 95.1198 463.011 91.8252 463.011C95.1198 463.011 97.7936 460.337 97.7936 457.043C97.7936 453.748 95.1198 451.074 91.8252 451.074H79.8885ZM91.8252 463.011H85.8568L85.8568 468.98C85.8568 465.685 88.5307 463.011 91.8252 463.011Z" fill="#7B4AE2" fill-opacity="0.5"/>
  </g>
  <g id="g-1" stroke-width="1" fill-rule="evenodd" mask="url(#mask-3)" transform="matrix(1.993664, 0, 0, 1.825213, 44.917519, 56.951466)" style="">
    <g id="g-6" transform="translate(32.000000, 36.000000)">
      <mask id="mask-5" fill="white">
        <path d="M124,144.610951 L124,163 L128,163 L128,163 C167.764502,163 200,195.235498 200,235 L200,244 L0,244 L0,235 C-4.86974701e-15,195.235498 32.235498,163 72,163 L72,163 L76,163 L76,144.610951 C58.7626345,136.422372 46.3722246,119.687011 44.3051388,99.8812385 C38.4803105,99.0577866 34,94.0521096 34,88 L34,74 C34,68.0540074 38.3245733,63.1180731 44,62.1659169 L44,56 L44,56 C44,25.072054 69.072054,5.68137151e-15 100,0 L100,0 L100,0 C130.927946,-5.68137151e-15 156,25.072054 156,56 L156,62.1659169 C161.675427,63.1180731 166,68.0540074 166,74 L166,88 C166,94.0521096 161.51969,99.0577866 155.694861,99.8812385 C153.627775,119.687011 141.237365,136.422372 124,144.610951 Z" transform="matrix(1, 0, 0, 1, 0, 0)"/>
      </mask>
      <path d="M124,144.610951 L124,163 L128,163 L128,163 C167.764502,163 200,195.235498 200,235 L200,244 L0,244 L0,235 C-4.86974701e-15,195.235498 32.235498,163 72,163 L72,163 L76,163 L76,144.610951 C58.7626345,136.422372 46.3722246,119.687011 44.3051388,99.8812385 C38.4803105,99.0577866 34,94.0521096 34,88 L34,74 C34,68.0540074 38.3245733,63.1180731 44,62.1659169 L44,56 L44,56 C44,25.072054 69.072054,5.68137151e-15 100,0 L100,0 L100,0 C130.927946,-5.68137151e-15 156,25.072054 156,56 L156,62.1659169 C161.675427,63.1180731 166,68.0540074 166,74 L166,88 C166,94.0521096 161.51969,99.0577866 155.694861,99.8812385 C153.627775,119.687011 141.237365,136.422372 124,144.610951 Z" transform="matrix(1, 0, 0, 1, 0, 0)" fill="#D0C6AC"/>
      <g id="g-7" mask="url(#mask-5)" fill="#FFDBB4">
        <g transform="translate(-32.000000, 0.000000)" id="g-8">
          <rect x="0" y="0" width="264" height="244"/>
        </g>
      </g>
      <path d="M156,79 L156,102 C156,132.927946 130.927946,158 100,158 C69.072054,158 44,132.927946 44,102 L44,79 L44,94 C44,124.927946 69.072054,150 100,150 C130.927946,150 156,124.927946 156,94 L156,79 Z" id="path-6" fill-opacity="0.100000001" fill="#000000" mask="url(#mask-5)"/>
    </g>
    <g id="g-9" transform="translate(0.000000, 170.000000)">
      <defs>
        <path d="M108,13.0708856 C90.0813006,15.075938 76.2798424,20.5518341 76.004203,34.6449676 C50.1464329,45.5680933 32,71.1646257 32,100.999485 L32,100.999485 L32,110 L232,110 L232,100.999485 C232,71.1646257 213.853567,45.5680933 187.995797,34.6449832 C187.720158,20.5518341 173.918699,15.075938 156,13.0708856 L156,32 L156,32 C156,45.254834 145.254834,56 132,56 L132,56 C118.745166,56 108,45.254834 108,32 L108,13.0708856 Z" id="react-path-77"/>
      </defs>
      <mask id="react-mask-78" fill="white">
        <path d="M108,13.0708856 C90.0813006,15.075938 76.2798424,20.5518341 76.004203,34.6449676 C50.1464329,45.5680933 32,71.1646257 32,100.999485 L32,100.999485 L32,110 L232,110 L232,100.999485 C232,71.1646257 213.853567,45.5680933 187.995797,34.6449832 C187.720158,20.5518341 173.918699,15.075938 156,13.0708856 L156,32 L156,32 C156,45.254834 145.254834,56 132,56 L132,56 C118.745166,56 108,45.254834 108,32 L108,13.0708856 Z" transform="matrix(1, 0, 0, 1, 0, 0)"/>
      </mask>
      <path d="M108,13.0708856 C90.0813006,15.075938 76.2798424,20.5518341 76.004203,34.6449676 C50.1464329,45.5680933 32,71.1646257 32,100.999485 L32,100.999485 L32,110 L232,110 L232,100.999485 C232,71.1646257 213.853567,45.5680933 187.995797,34.6449832 C187.720158,20.5518341 173.918699,15.075938 156,13.0708856 L156,32 L156,32 C156,45.254834 145.254834,56 132,56 L132,56 C118.745166,56 108,45.254834 108,32 L108,13.0708856 Z" id="path-7" transform="matrix(1, 0, 0, 1, 0, 0)" fill="#B7C1DB" fill-rule="evenodd"/>
      <g id="g-10" mask="url(#react-mask-78)" fill-rule="evenodd" fill="#49d5b6">
        <rect id="rect-1" x="0" y="0" width="264" height="110"/>
      </g>
      <path d="M102,61.7390531 L102,110 L95,110 L95,58.1502625 C97.2037542,59.4600576 99.5467694,60.6607878 102,61.7390531 Z M169,58.1502625 L169,98.5 C169,100.432997 167.432997,102 165.5,102 C163.567003,102 162,100.432997 162,98.5 L162,61.7390531 C164.453231,60.6607878 166.796246,59.4600576 169,58.1502625 Z" id="path-8" fill="#F4F4F4" fill-rule="evenodd" mask="url(#react-mask-78)"/>
      <path d="M90.9601329,12.7243537 C75.9093095,15.5711782 65.5,21.2428847 65.5,32.3076923 C65.5,52.0200095 98.5376807,68 132,68 C165.462319,68 198.5,52.0200095 198.5,32.3076923 C198.5,21.2428847 188.09069,15.5711782 173.039867,12.7243537 C182.124921,16.0744598 188,21.7060546 188,31.0769231 C188,51.4689754 160.178795,68 132,68 C103.821205,68 76,51.4689754 76,31.0769231 C76,21.7060546 81.8750795,16.0744598 90.9601329,12.7243537 Z" id="path-9" fill-opacity="0.16" fill="#000000" fill-rule="evenodd" mask="url(#react-mask-78)"/>
    </g>
    <g id="g-11" transform="translate(76.000000, 82.000000)" fill="#000000">
      <g id="Mouth/Twinkle" transform="translate(2.000000, 52.000000)" fill-opacity="0.599999964" fill-rule="nonzero" fill="#000000">
        <path d="M40,16 C40,21.371763 46.1581544,25 54,25 C61.8418456,25 68,21.371763 68,16 C68,14.8954305 67.050301,14 66,14 C64.7072748,14 64.1302316,14.9051755 64,16 C62.7575758,18.9378973 59.6832595,20.7163149 54,21 C48.3167405,20.7163149 45.2424242,18.9378973 44,16 C43.8697684,14.9051755 43.2927252,14 42,14 C40.949699,14 40,14.8954305 40,16 Z" id="path-10"/>
      </g>
      <g id="g-12" transform="translate(28.000000, 40.000000)" fill-opacity="0.16">
        <path d="M16,8 C16,12.418278 21.372583,16 28,16 L28,16 C34.627417,16 40,12.418278 40,8" id="path-11"/>
      </g>
      <g id="g-13" transform="translate(0.000000, 8.000000)" fill-opacity="0.599999964">
        <circle id="circle-3" cx="30" cy="22" r="6"/>
        <circle id="circle-3" cx="82" cy="22" r="6"/>
      </g>
      <g id="g-14" fill-opacity="0.599999964">
        <g id="g-15" transform="translate(12.000000, 6.000000)">
          <path d="M3.63024536,11.1585767 C7.54515501,5.64986673 18.2779197,2.56083721 27.5230268,4.83118046 C28.5957248,5.0946055 29.6788665,4.43856013 29.9422916,3.36586212 C30.2057166,2.2931641 29.5496712,1.21002236 28.4769732,0.94659732 C17.7403633,-1.69001789 5.31209962,1.88699832 0.369754639,8.84142326 C-0.270109626,9.74178291 -0.0589363917,10.9903811 0.84142326,11.6302454 C1.74178291,12.2701096 2.9903811,12.0589364 3.63024536,11.1585767 Z" id="path-12" fill-rule="nonzero"/>
          <path d="M61.6302454,11.1585767 C65.545155,5.64986673 76.2779197,2.56083721 85.5230268,4.83118046 C86.5957248,5.0946055 87.6788665,4.43856013 87.9422916,3.36586212 C88.2057166,2.2931641 87.5496712,1.21002236 86.4769732,0.94659732 C75.7403633,-1.69001789 63.3120996,1.88699832 58.3697546,8.84142326 C57.7298904,9.74178291 57.9410636,10.9903811 58.8414233,11.6302454 C59.7417829,12.2701096 60.9903811,12.0589364 61.6302454,11.1585767 Z" id="path-12" fill-rule="nonzero" transform="translate(73.000154, 6.039198) scale(-1, 1) translate(-73.000154, -6.039198) "/>
        </g>
      </g>
    </g>
    <g id="g-16" stroke-width="1" fill-rule="evenodd">
      <defs>
        <rect id="react-path-72" x="0" y="0" width="264" height="280"/>
        <path d="M180.14998,39.9204083 C177.390206,37.1003988 174.185913,34.7068297 171.069252,32.3065503 C170.381566,31.777442 169.682843,31.2610833 169.010544,30.7118441 C168.857687,30.5870323 167.291999,29.4657388 167.104691,29.0530544 C166.653816,28.0602634 166.915042,28.8332916 166.977255,27.6485857 C167.055857,26.150508 170.11064,21.9193194 167.831176,20.9490079 C166.828413,20.522232 165.039628,21.6579526 164.077671,22.0330592 C162.196235,22.7671676 160.291721,23.3932399 158.346734,23.9330847 C159.278588,22.0763407 161.055333,18.3594977 157.71591,19.3543018 C155.114345,20.1293431 152.690052,22.1219709 150.075777,23.0594018 C150.940735,21.6415124 154.399901,17.2479341 151.274209,17.0023366 C150.301549,16.925839 147.471201,18.7503735 146.423952,19.1395717 C143.287223,20.3054888 140.083264,21.0590571 136.789999,21.6525844 C125.59203,23.6707114 112.497238,23.0953019 102.1368,28.1934632 C94.1494796,32.1236942 86.262502,38.2220278 81.648386,45.987539 C77.2011742,53.472559 75.537818,61.6641751 74.6069673,70.2412987 C73.9239644,76.535909 73.8684412,83.0425652 74.1878671,89.3599905 C74.2922241,91.4297869 74.5250203,100.970847 77.5319724,98.0813859 C79.0300967,96.641688 79.019059,90.8282073 79.3963495,88.8604076 C80.1472513,84.9452748 80.870057,81.0126951 82.122006,77.2227096 C84.3282191,70.5439339 86.9307879,63.4296587 92.4269209,58.8297383 C95.9539853,55.8782066 98.4307906,51.8889248 101.806002,48.9112229 C103.322188,47.5738572 102.165231,47.7130963 104.602902,47.888571 C106.240504,48.006337 107.885464,48.0512961 109.52641,48.0942421 C113.322394,48.1928837 117.124399,48.16772 120.921387,48.1811407 C128.56821,48.208653 136.179243,48.316689 143.818708,47.9164188 C147.213653,47.7385955 150.617965,47.6423024 154.00388,47.3282597 C155.895349,47.152785 159.251496,45.9405668 160.808488,46.8669256 C162.233362,47.7144383 163.71309,50.4817719 164.736257,51.615144 C167.153525,54.2935659 170.035717,56.3392052 172.862385,58.5354911 C178.756547,63.114945 181.732392,68.8666908 183.522515,76.023241 C185.305949,83.1532854 184.805905,89.76815 187.013456,96.78479 C187.401784,98.0184813 188.428965,100.14498 189.695296,98.2389151 C189.930434,97.8849461 189.869559,95.9390277 189.869559,94.819339 C189.869559,90.2995934 191.014141,86.9083772 190.999758,82.3591197 C190.943566,68.5271489 190.49637,50.4908308 180.14998,39.9204083 Z" id="react-path-71"/>
      </defs>
      <mask id="react-mask-70" fill="white">
        <rect x="0" y="0" width="264" height="280" transform="matrix(1, 0, 0, 1, 0, 0)"/>
      </mask>
      <g id="g-5"/>
      <g id="g-17" mask="url(#react-mask-70)">
        <g transform="translate(-1.000000, 0.000000)">
          <mask id="react-mask-69" fill="white">
            <path d="M180.14998,39.9204083 C177.390206,37.1003988 174.185913,34.7068297 171.069252,32.3065503 C170.381566,31.777442 169.682843,31.2610833 169.010544,30.7118441 C168.857687,30.5870323 167.291999,29.4657388 167.104691,29.0530544 C166.653816,28.0602634 166.915042,28.8332916 166.977255,27.6485857 C167.055857,26.150508 170.11064,21.9193194 167.831176,20.9490079 C166.828413,20.522232 165.039628,21.6579526 164.077671,22.0330592 C162.196235,22.7671676 160.291721,23.3932399 158.346734,23.9330847 C159.278588,22.0763407 161.055333,18.3594977 157.71591,19.3543018 C155.114345,20.1293431 152.690052,22.1219709 150.075777,23.0594018 C150.940735,21.6415124 154.399901,17.2479341 151.274209,17.0023366 C150.301549,16.925839 147.471201,18.7503735 146.423952,19.1395717 C143.287223,20.3054888 140.083264,21.0590571 136.789999,21.6525844 C125.59203,23.6707114 112.497238,23.0953019 102.1368,28.1934632 C94.1494796,32.1236942 86.262502,38.2220278 81.648386,45.987539 C77.2011742,53.472559 75.537818,61.6641751 74.6069673,70.2412987 C73.9239644,76.535909 73.8684412,83.0425652 74.1878671,89.3599905 C74.2922241,91.4297869 74.5250203,100.970847 77.5319724,98.0813859 C79.0300967,96.641688 79.019059,90.8282073 79.3963495,88.8604076 C80.1472513,84.9452748 80.870057,81.0126951 82.122006,77.2227096 C84.3282191,70.5439339 86.9307879,63.4296587 92.4269209,58.8297383 C95.9539853,55.8782066 98.4307906,51.8889248 101.806002,48.9112229 C103.322188,47.5738572 102.165231,47.7130963 104.602902,47.888571 C106.240504,48.006337 107.885464,48.0512961 109.52641,48.0942421 C113.322394,48.1928837 117.124399,48.16772 120.921387,48.1811407 C128.56821,48.208653 136.179243,48.316689 143.818708,47.9164188 C147.213653,47.7385955 150.617965,47.6423024 154.00388,47.3282597 C155.895349,47.152785 159.251496,45.9405668 160.808488,46.8669256 C162.233362,47.7144383 163.71309,50.4817719 164.736257,51.615144 C167.153525,54.2935659 170.035717,56.3392052 172.862385,58.5354911 C178.756547,63.114945 181.732392,68.8666908 183.522515,76.023241 C185.305949,83.1532854 184.805905,89.76815 187.013456,96.78479 C187.401784,98.0184813 188.428965,100.14498 189.695296,98.2389151 C189.930434,97.8849461 189.869559,95.9390277 189.869559,94.819339 C189.869559,90.2995934 191.014141,86.9083772 190.999758,82.3591197 C190.943566,68.5271489 190.49637,50.4908308 180.14998,39.9204083 Z" transform="matrix(1, 0, 0, 1, 0, 0)"/>
          </mask>
          <path d="M180.14998,39.9204083 C177.390206,37.1003988 174.185913,34.7068297 171.069252,32.3065503 C170.381566,31.777442 169.682843,31.2610833 169.010544,30.7118441 C168.857687,30.5870323 167.291999,29.4657388 167.104691,29.0530544 C166.653816,28.0602634 166.915042,28.8332916 166.977255,27.6485857 C167.055857,26.150508 170.11064,21.9193194 167.831176,20.9490079 C166.828413,20.522232 165.039628,21.6579526 164.077671,22.0330592 C162.196235,22.7671676 160.291721,23.3932399 158.346734,23.9330847 C159.278588,22.0763407 161.055333,18.3594977 157.71591,19.3543018 C155.114345,20.1293431 152.690052,22.1219709 150.075777,23.0594018 C150.940735,21.6415124 154.399901,17.2479341 151.274209,17.0023366 C150.301549,16.925839 147.471201,18.7503735 146.423952,19.1395717 C143.287223,20.3054888 140.083264,21.0590571 136.789999,21.6525844 C125.59203,23.6707114 112.497238,23.0953019 102.1368,28.1934632 C94.1494796,32.1236942 86.262502,38.2220278 81.648386,45.987539 C77.2011742,53.472559 75.537818,61.6641751 74.6069673,70.2412987 C73.9239644,76.535909 73.8684412,83.0425652 74.1878671,89.3599905 C74.2922241,91.4297869 74.5250203,100.970847 77.5319724,98.0813859 C79.0300967,96.641688 79.019059,90.8282073 79.3963495,88.8604076 C80.1472513,84.9452748 80.870057,81.0126951 82.122006,77.2227096 C84.3282191,70.5439339 86.9307879,63.4296587 92.4269209,58.8297383 C95.9539853,55.8782066 98.4307906,51.8889248 101.806002,48.9112229 C103.322188,47.5738572 102.165231,47.7130963 104.602902,47.888571 C106.240504,48.006337 107.885464,48.0512961 109.52641,48.0942421 C113.322394,48.1928837 117.124399,48.16772 120.921387,48.1811407 C128.56821,48.208653 136.179243,48.316689 143.818708,47.9164188 C147.213653,47.7385955 150.617965,47.6423024 154.00388,47.3282597 C155.895349,47.152785 159.251496,45.9405668 160.808488,46.8669256 C162.233362,47.7144383 163.71309,50.4817719 164.736257,51.615144 C167.153525,54.2935659 170.035717,56.3392052 172.862385,58.5354911 C178.756547,63.114945 181.732392,68.8666908 183.522515,76.023241 C185.305949,83.1532854 184.805905,89.76815 187.013456,96.78479 C187.401784,98.0184813 188.428965,100.14498 189.695296,98.2389151 C189.930434,97.8849461 189.869559,95.9390277 189.869559,94.819339 C189.869559,90.2995934 191.014141,86.9083772 190.999758,82.3591197 C190.943566,68.5271489 190.49637,50.4908308 180.14998,39.9204083 Z" id="path-13" transform="matrix(1, 0, 0, 1, 0, 0)" stroke="none" fill="#1F3140" fill-rule="evenodd"/>
          <g id="g-7" mask="url(#react-mask-69)" fill="#2c1b18">
            <g transform="translate(0.000000, 0.000000) " id="g-8">
              <rect x="0" y="0" width="264" height="280"/>
            </g>
          </g>
        </g>
      </g>
    </g>
  </g>
</svg>