<svg width="33" height="33" viewBox="0 0 33 33" fill="none" xmlns="http://www.w3.org/2000/svg">
<path d="M24.0296 18.6229L20.0296 16.6229C19.8722 16.5444 19.6968 16.5089 19.5212 16.5199C19.3457 16.5308 19.1761 16.5879 19.0296 16.6854L17.1934 17.9104C16.3504 17.447 15.6568 16.7533 15.1934 15.9104L16.4184 14.0741C16.5158 13.9277 16.5729 13.7581 16.5839 13.5825C16.5949 13.4069 16.5593 13.2316 16.4809 13.0741L14.4809 9.07413C14.398 8.90672 14.2698 8.76588 14.111 8.66756C13.9521 8.56925 13.7689 8.5174 13.5821 8.51788C12.256 8.51788 10.9843 9.04467 10.0466 9.98235C9.10891 10.92 8.58212 12.1918 8.58212 13.5179C8.58543 16.4342 9.74542 19.2302 11.8076 21.2924C13.8698 23.3546 16.6658 24.5146 19.5821 24.5179C20.2387 24.5179 20.8889 24.3886 21.4955 24.1373C22.1022 23.886 22.6534 23.5177 23.1177 23.0534C23.5819 22.5891 23.9502 22.0379 24.2015 21.4313C24.4528 20.8247 24.5821 20.1745 24.5821 19.5179C24.5823 19.3321 24.5306 19.15 24.433 18.9919C24.3355 18.8338 24.1958 18.706 24.0296 18.6229ZM19.5821 22.5179C17.196 22.5152 14.9083 21.5662 13.2211 19.8789C11.5338 18.1917 10.5848 15.904 10.5821 13.5179C10.5819 12.8243 10.8221 12.152 11.2617 11.6156C11.7013 11.0791 12.3133 10.7115 12.9934 10.5754L14.4284 13.4504L13.2071 15.2679C13.1159 15.4048 13.0598 15.5621 13.0439 15.7258C13.028 15.8896 13.0527 16.0547 13.1159 16.2066C13.8314 17.9071 15.1841 19.2599 16.8846 19.9754C17.037 20.0414 17.2034 20.0684 17.3688 20.054C17.5342 20.0396 17.6935 19.9842 17.8321 19.8929L19.6584 18.6754L22.5334 20.1104C22.3962 20.7913 22.027 21.4035 21.4888 21.8425C20.9506 22.2816 20.2767 22.5203 19.5821 22.5179ZM16.5821 3.51788C14.3377 3.51739 12.1314 4.09799 10.1779 5.20317C8.22448 6.30835 6.59043 7.90045 5.43484 9.82451C4.27924 11.7486 3.64147 13.939 3.58361 16.1827C3.52574 18.4264 4.04975 20.6468 5.10462 22.6279L3.68587 26.8841C3.56835 27.2365 3.5513 27.6147 3.63662 27.9762C3.72194 28.3378 3.90627 28.6684 4.16894 28.9311C4.43161 29.1937 4.76224 29.3781 5.12378 29.4634C5.48532 29.5487 5.86348 29.5317 6.21587 29.4141L10.4721 27.9954C12.2156 28.9227 14.1474 29.4406 16.1209 29.5099C18.0944 29.5791 20.0578 29.1979 21.862 28.395C23.6661 27.5922 25.2637 26.3889 26.5334 24.8765C27.8031 23.3641 28.7115 21.5822 29.1898 19.6663C29.668 17.7504 29.7035 15.7506 29.2935 13.8189C28.8836 11.8872 28.0389 10.0743 26.8237 8.51778C25.6084 6.96125 24.0546 5.70203 22.28 4.8357C20.5055 3.96937 18.5569 3.51869 16.5821 3.51788ZM16.5821 27.5179C14.6483 27.5192 12.7485 27.01 11.0746 26.0416C10.9521 25.9706 10.8158 25.9263 10.6749 25.9119C10.5339 25.8975 10.3915 25.9131 10.2571 25.9579L5.58212 27.5179L7.14087 22.8429C7.1858 22.7086 7.20168 22.5662 7.18746 22.4253C7.17324 22.2843 7.12924 22.148 7.05837 22.0254C5.84584 19.929 5.35901 17.4911 5.67341 15.0898C5.98781 12.6886 7.08586 10.4582 8.79723 8.74462C10.5086 7.03109 12.7376 5.93022 15.1385 5.61279C17.5394 5.29535 19.9779 5.7791 22.0758 6.98899C24.1737 8.19888 25.8137 10.0673 26.7413 12.3043C27.669 14.5414 27.8325 17.022 27.2064 19.3615C26.5804 21.7009 25.1998 23.7684 23.2788 25.2431C21.3578 26.7179 19.0039 27.5175 16.5821 27.5179Z" fill="white"/>
</svg>
